<svg width="16" height="16" viewBox="0 0 16 16" fill="none" xmlns="http://www.w3.org/2000/svg">
<path d="M12.9875 6.49379V5.48963C12.9875 5.23076 12.7776 5.02088 12.5187 5.02088H10.9791V4.48547C10.9791 4.2266 10.7692 4.01672 10.5104 4.01672H5.48955C5.23067 4.01672 5.0208 4.2266 5.0208 4.48547V5.02088H3.4812C3.22233 5.02088 3.01245 5.23076 3.01245 5.48963V6.49379C3.01245 7.833 4.08086 8.92663 5.41001 8.96888C5.84933 9.73941 6.62251 10.2959 7.5312 10.4402V12.05H6.4937C5.87242 12.0731 5.87289 12.9647 6.4937 12.9875H9.5062C10.1275 12.9645 10.127 12.0729 9.5062 12.05H8.4687V10.4401C9.37739 10.2959 10.1506 9.73938 10.5899 8.96885C11.919 8.92663 12.9875 7.83297 12.9875 6.49379ZM3.94995 6.49379V5.95838H5.0208V7.49797C5.0208 7.65913 5.03383 7.81729 5.05858 7.97157C4.41883 7.78466 3.94995 7.19313 3.94995 6.49379ZM12.05 6.49379C12.05 7.19313 11.5811 7.78466 10.9413 7.97157C10.9661 7.81729 10.9791 7.65913 10.9791 7.49797V5.95838H12.05V6.49379Z" fill="black"/>
<path d="M13.1819 2.15512L12.4466 2.89043C12.2636 3.07349 12.2636 3.37028 12.4466 3.55334C12.6297 3.73637 12.9265 3.7364 13.1095 3.55334L13.8448 2.81803C14.0279 2.63496 14.0279 2.33818 13.8448 2.15512C13.6618 1.97206 13.365 1.97206 13.1819 2.15512Z" fill="black"/>
<path d="M2.89052 12.4466L2.15524 13.1819C1.97218 13.365 1.97218 13.6618 2.15524 13.8448C2.33827 14.0279 2.63508 14.0279 2.81815 13.8448L3.55343 13.1095C3.73649 12.9265 3.73649 12.6297 3.55343 12.4466C3.3704 12.2636 3.07358 12.2636 2.89052 12.4466Z" fill="black"/>
<path d="M2.89052 3.55334C3.07355 3.7364 3.37037 3.7364 3.55343 3.55334C3.73649 3.37028 3.73649 3.07346 3.55343 2.89043L2.81815 2.15512C2.63512 1.97206 2.3383 1.97206 2.15524 2.15512C1.97218 2.33818 1.97218 2.63496 2.15524 2.81803L2.89052 3.55334Z" fill="black"/>
<path d="M13.1095 12.4466C12.9265 12.2636 12.6297 12.2636 12.4466 12.4466C12.2636 12.6297 12.2636 12.9265 12.4466 13.1095L13.1819 13.8448C13.3649 14.0279 13.6617 14.0279 13.8448 13.8448C14.0279 13.6618 14.0279 13.365 13.8448 13.1819L13.1095 12.4466Z" fill="black"/>
<path d="M9.62759 1.92609C9.87762 1.99309 10.1347 1.84468 10.2017 1.59462L10.4708 0.590182C10.5378 0.34012 10.3894 0.0830885 10.1393 0.0160885C9.88931 -0.0509115 9.63224 0.0974635 9.56524 0.347557L9.29612 1.35199C9.22912 1.60206 9.37749 1.85909 9.62759 1.92609Z" fill="black"/>
<path d="M6.37238 14.0739C6.12235 14.0069 5.86529 14.1554 5.79829 14.4054L5.52916 15.4099C5.46213 15.6599 5.61054 15.9169 5.86063 15.9839C6.11066 16.0509 6.36772 15.9025 6.43472 15.6525L6.70385 14.648C6.77085 14.398 6.62247 14.1409 6.37238 14.0739Z" fill="black"/>
<path d="M1.59463 5.79831L0.590193 5.52916C0.34013 5.46213 0.0830991 5.61056 0.0160991 5.8606C-0.0509321 6.11066 0.0974741 6.36769 0.347568 6.43469L1.35201 6.70385C1.60207 6.77088 1.8591 6.62244 1.9261 6.37241C1.9931 6.12235 1.84469 5.86528 1.59463 5.79831Z" fill="black"/>
<path d="M15.6525 9.56528L14.6481 9.29613C14.398 9.2291 14.141 9.37753 14.074 9.62756C14.0069 9.87763 14.1553 10.1347 14.4054 10.2017L15.4099 10.4708C15.6599 10.5378 15.917 10.3894 15.984 10.1394C16.051 9.88931 15.9026 9.63228 15.6525 9.56528Z" fill="black"/>
<path d="M5.79839 1.59462C5.86536 1.84468 6.12243 1.99309 6.37249 1.92609C6.62255 1.85909 6.77096 1.60206 6.70396 1.35199L6.43483 0.347555C6.36786 0.0974926 6.1108 -0.0509136 5.86074 0.0160864C5.61068 0.0830864 5.46227 0.340118 5.52927 0.59018L5.79839 1.59462Z" fill="black"/>
<path d="M10.2017 14.4054C10.1347 14.1554 9.87765 14.0069 9.62758 14.0739C9.37752 14.1409 9.22912 14.398 9.29612 14.648L9.56524 15.6525C9.63221 15.9025 9.88927 16.0509 10.1393 15.9839C10.3894 15.9169 10.5378 15.6599 10.4708 15.4099L10.2017 14.4054Z" fill="black"/>
<path d="M14.648 6.70385L15.6525 6.43469C15.9025 6.36769 16.0509 6.11066 15.9839 5.8606C15.9169 5.61056 15.6599 5.46213 15.4099 5.52916L14.4054 5.79831C14.1554 5.86531 14.0069 6.12235 14.0739 6.37241C14.1409 6.62244 14.398 6.77088 14.648 6.70385Z" fill="black"/>
<path d="M1.35201 9.29613L0.347568 9.56528C0.0974741 9.63228 -0.0509321 9.88931 0.0160991 10.1394C0.0830991 10.3894 0.34013 10.5378 0.590193 10.4708L1.59463 10.2017C1.84469 10.1347 1.9931 9.87763 1.9261 9.62756C1.8591 9.37753 1.60207 9.2291 1.35201 9.29613Z" fill="black"/>
</svg>
